<svg width="312" height="142" viewBox="0 0 412 242" fill="none" xmlns="http://www.w3.org/2000/svg">
<g style="mix-blend-mode:multiply">
<path d="M202 0L292.933 138.75H111.067L202 0Z" fill="#3ADEF4"/>
</g>
<path d="M16.9972 86.912V81.8H48.2452L59.7292 87.92V107H22.3612V86.912H16.9972ZM31.7932 101.888H50.3692V89.36L45.7612 86.912H31.7932V101.888ZM63.3416 92.6V87.92H76.8416V101.24L79.0016 102.32H91.0616V87.92H100.062V107H93.6176L91.7816 105.2L89.9816 107H76.6616L67.8416 102.68V92.6H63.3416ZM106.914 107V87.92H113.358L115.194 89.72L116.994 87.92H130.314L139.134 92.24V107H130.134V93.68L127.974 92.6H115.914V107H106.914ZM145.63 105.92L154.63 106.82V108.44H168.85V105.92L145.63 103.04V87.92H167.77L169.57 89.72L171.406 87.92H177.85V113.12H145.63V105.92ZM154.63 99.62L168.85 101.42V92.6H154.63V99.62ZM181.457 86.912V81.8H224.225V91.7L215.981 94.4L224.225 97.1V107H186.821V86.912H181.457ZM196.217 101.888H214.829V100.052L207.737 96.956H196.217V101.888ZM196.217 91.844H207.737L214.829 88.748V86.912H196.217V91.844ZM227.836 92.6V87.92H264.196V97.46L241.336 100.7V102.32H255.196V100.7L264.196 99.8V107H232.336V92.6H227.836ZM241.336 96.056L255.196 94.22V92.6H241.336V96.056ZM267.782 92.6V87.92H304.142V97.46L281.282 100.7V102.32H295.142V100.7L304.142 99.8V107H272.282V92.6H267.782ZM281.282 96.056L295.142 94.22V92.6H281.282V96.056ZM307.728 92.6V87.92H312.228V81.8H321.228V87.92H330.048V92.6H321.228V101.24L323.388 102.32H337.248V107H321.048L312.228 102.68V92.6H307.728ZM341.563 107V81.8H350.563V102.32H355.063V107H341.563ZM355.417 92.6V87.92H391.777V97.46L368.917 100.7V102.32H382.777V100.7L391.777 99.8V107H359.917V92.6H355.417ZM368.917 96.056L382.777 94.22V92.6H368.917V96.056Z" fill="#FEFEFE"/>
</svg>
