<svg width="420" height="431" viewBox="0 0 420 431" fill="none" >
<g clip-path="url(#clip0)">
<rect width="420" height="431" fill="white"/>
<path d="M210 189L300.933 327.75H119.067L210 189Z" fill="#3ADEF4"/>
</g>
<path d="M24.9972 275.912V270.8H56.2452L67.7292 276.92V296H30.3612V275.912H24.9972ZM39.7932 290.888H58.3692V278.36L53.7612 275.912H39.7932V290.888ZM71.3416 281.6V276.92H84.8416V290.24L87.0016 291.32H99.0616V276.92H108.062V296H101.618L99.7816 294.2L97.9816 296H84.6616L75.8416 291.68V281.6H71.3416ZM114.914 296V276.92H121.358L123.194 278.72L124.994 276.92H138.314L147.134 281.24V296H138.134V282.68L135.974 281.6H123.914V296H114.914ZM153.63 294.92L162.63 295.82V297.44H176.85V294.92L153.63 292.04V276.92H175.77L177.57 278.72L179.406 276.92H185.85V302.12H153.63V294.92ZM162.63 288.62L176.85 290.42V281.6H162.63V288.62ZM189.457 275.912V270.8H232.225V280.7L223.981 283.4L232.225 286.1V296H194.821V275.912H189.457ZM204.217 290.888H222.829V289.052L215.737 285.956H204.217V290.888ZM204.217 280.844H215.737L222.829 277.748V275.912H204.217V280.844ZM235.836 281.6V276.92H272.196V286.46L249.336 289.7V291.32H263.196V289.7L272.196 288.8V296H240.336V281.6H235.836ZM249.336 285.056L263.196 283.22V281.6H249.336V285.056ZM275.782 281.6V276.92H312.142V286.46L289.282 289.7V291.32H303.142V289.7L312.142 288.8V296H280.282V281.6H275.782ZM289.282 285.056L303.142 283.22V281.6H289.282V285.056ZM315.728 281.6V276.92H320.228V270.8H329.228V276.92H338.048V281.6H329.228V290.24L331.388 291.32H345.248V296H329.048L320.228 291.68V281.6H315.728ZM349.563 296V270.8H358.563V291.32H363.063V296H349.563ZM363.417 281.6V276.92H399.777V286.46L376.917 289.7V291.32H390.777V289.7L399.777 288.8V296H367.917V281.6H363.417ZM376.917 285.056L390.777 283.22V281.6H376.917V285.056Z" fill="black"/>
</g>
<defs>
<clipPath id="clip0">
<rect width="420" height="431" fill="white"/>
</clipPath>
</defs>
</svg>
