<svg width="376" height="33" viewBox="0 0 376 33" fill="none" xmlns="http://www.w3.org/2000/svg">
<path d="M0.997192 5.912V0.799998H32.2452L43.7292 6.92V26H6.36119V5.912H0.997192ZM15.7932 20.888H34.3692V8.36L29.7612 5.912H15.7932V20.888ZM47.3416 11.6V6.92H60.8416V20.24L63.0016 21.32H75.0616V6.92H84.0616V26H77.6176L75.7816 24.2L73.9816 26H60.6616L51.8416 21.68V11.6H47.3416ZM90.9142 26V6.92H97.3582L99.1942 8.72L100.994 6.92H114.314L123.134 11.24V26H114.134V12.68L111.974 11.6H99.9142V26H90.9142ZM129.63 24.92L138.63 25.82V27.44H152.85V24.92L129.63 22.04V6.92H151.77L153.57 8.72L155.406 6.92H161.85V32.12H129.63V24.92ZM138.63 18.62L152.85 20.42V11.6H138.63V18.62ZM165.457 5.912V0.799998H208.225V10.7L199.981 13.4L208.225 16.1V26H170.821V5.912H165.457ZM180.217 20.888H198.829V19.052L191.737 15.956H180.217V20.888ZM180.217 10.844H191.737L198.829 7.748V5.912H180.217V10.844ZM211.836 11.6V6.92H248.196V16.46L225.336 19.7V21.32H239.196V19.7L248.196 18.8V26H216.336V11.6H211.836ZM225.336 15.056L239.196 13.22V11.6H225.336V15.056ZM251.782 11.6V6.92H288.142V16.46L265.282 19.7V21.32H279.142V19.7L288.142 18.8V26H256.282V11.6H251.782ZM265.282 15.056L279.142 13.22V11.6H265.282V15.056ZM291.728 11.6V6.92H296.228V0.799998H305.228V6.92H314.048V11.6H305.228V20.24L307.388 21.32H321.248V26H305.048L296.228 21.68V11.6H291.728ZM325.563 26V0.799998H334.563V21.32H339.063V26H325.563ZM339.417 11.6V6.92H375.777V16.46L352.917 19.7V21.32H366.777V19.7L375.777 18.8V26H343.917V11.6H339.417ZM352.917 15.056L366.777 13.22V11.6H352.917V15.056Z" fill="black"/>
</svg>
