<svg width="498" height="431" viewBox="0 0 498 431" fill="none" xmlns="http://www.w3.org/2000/svg">
<g clip-path="url(#clip0)">
<rect width="498" height="431" fill="white"/>
<g style="mix-blend-mode:multiply">
<path d="M243.973 361.031L153.081 222.254L334.946 222.308L243.973 361.031Z" fill="#F43AED"/>
</g>
<path d="M18.5409 311.031V302.751L27.9369 304.119V305.919H46.1529V302.751L18.5409 298.395V285.831H55.5489V294.579L46.1529 293.139V290.943H27.9369V294.363L55.5489 298.719V311.031H18.5409ZM62.3892 311.031V291.951H94.9692V311.031H62.3892ZM71.3892 306.351H85.9692V296.631H71.3892V306.351ZM98.5678 296.631V291.951H134.928V299.151L125.928 298.251V296.631H112.068V306.351H125.928V304.731L134.928 303.831V311.031H103.068V296.631H98.5678ZM138.162 296.631V291.951H151.662V311.031H142.662V296.631H138.162ZM142.662 289.431V284.391H151.662V289.431H142.662ZM158.497 311.031V301.491L181.717 298.611V296.631H167.497V298.251L158.497 299.151V291.951H190.717V311.031H184.273L182.437 309.231L180.637 311.031H158.497ZM167.497 306.351H181.717V302.967L167.497 304.731V306.351ZM197.564 311.031V285.831H206.564V306.351H211.064V311.031H197.564ZM215.018 311.031V284.823L243.026 300.483V290.943H239.966V285.831H252.422V311.031H244.466L224.414 299.511V305.919H227.474V311.031H215.018ZM256.391 296.631V291.951H292.751V301.491L269.891 304.731V306.351H283.751V304.731L292.751 303.831V311.031H260.891V296.631H256.391ZM269.891 300.087L283.751 298.251V296.631H269.891V300.087ZM296.337 296.631V291.951H300.837V285.831H309.837V291.951H318.657V296.631H309.837V305.271L311.997 306.351H325.857V311.031H309.657L300.837 306.711V296.631H296.337ZM321.439 296.631V291.951H332.203L337.423 303.291L343.723 291.951H350.383L356.683 303.291L361.903 291.951H370.543L361.723 311.031H352.543L347.143 301.491L341.563 311.031H332.383L325.759 296.631H321.439ZM373.774 311.031V291.951H406.354V311.031H373.774ZM382.774 306.351H397.354V296.631H382.774V306.351ZM409.952 296.631V291.951H420.896L422.732 293.751L424.532 291.951H442.712V299.871L433.712 298.971V296.631H423.452V311.031H414.452V296.631H409.952ZM444.168 307.935V302.391L448.668 301.347V285.831H457.668V299.331L471.168 296.271V291.951H480.168V299.691L469.548 302.067L474.588 306.351H480.168V311.031H469.548L461.448 303.831L457.668 304.731V311.031H448.668V306.891L444.168 307.935Z" fill="#020000"/>
</g>
<defs>
<clipPath id="clip0">
<rect width="498" height="431" fill="white"/>
</clipPath>
</defs>
</svg>
